<svg width="139" height="135" viewBox="0 0 139 135" fill="none" xmlns="http://www.w3.org/2000/svg">
<path d="M69.5 133C106.72 133 137 103.733 137 67.5C137 31.2673 106.72 2 69.5 2C32.2797 2 2 31.2673 2 67.5C2 103.733 32.2797 133 69.5 133Z" fill="#FF0000" stroke="white" stroke-width="4"/>
<path d="M49.5001 52.5L55 63C58.5 24.5 82.5001 46.9995 82.5001 46.9995L85.5001 50.5L94.0001 43.9995L88.5 36.5002C70 18.0001 46 27.5 49.5001 52.5Z" fill="white"/>
<path d="M88.9996 64.0015C71.4996 108.001 43.0002 55 44.5 46C37.0001 53.9995 44.4996 86.0007 59.4996 99.0015C81.4996 93.5015 95.4996 94.5015 98.9996 65.5015L98.4996 58.5015L88.9996 63.0015V64.0015Z" fill="white"/>
<path d="M71.5 114.999C69.5 112.499 66.067 109.67 65.567 108.17C71 107 81.867 102.77 81.067 103.17C79.567 106.17 70.5 116.999 71.5 114.999Z" fill="white"/>
<path d="M104.5 43L89 25H85L98 45C100 43 93.5 50.5 82 56L78 51.5L74 52.5L82 61V71.5L85 69.5V62C91 59.5 94.5 58.5 101.5 56L104 80.5L108 77V52.5C138 30 107.5 41 104.5 43Z" fill="#FFEE00"/>
<path d="M35.5 68C-9.49985 87.5005 27.0001 148 118 79.4995C16.5001 127.5 13.5001 85.0005 35.5 68Z" fill="#FFEE00"/>
</svg>
