<svg width="337" height="364" viewBox="0 0 337 364" fill="none" xmlns="http://www.w3.org/2000/svg">
<path d="M206.514 254.627L167.705 215.996L175.715 210.362L175.729 210.352L175.742 210.341L185.28 202.603L185.3 202.587L185.318 202.568L192.789 195.098L192.797 195.09L192.804 195.082L200.491 186.707L237.026 224.115L206.514 254.627Z" fill="#D9D9D9" stroke="#1D4ED8"/>
<path d="M233.5 120C233.5 186.01 181.329 239.5 117 239.5C52.6707 239.5 0.5 186.01 0.5 120C0.5 53.99 52.6707 0.5 117 0.5C181.329 0.5 233.5 53.99 233.5 120Z" fill="#B4C3EE" stroke="#1D4ED8"/>
<path d="M207 120.5C207 171.586 165.586 213 114.5 213C63.4137 213 22 171.586 22 120.5C22 69.4137 63.4137 28 114.5 28C165.586 28 207 69.4137 207 120.5Z" fill="white"/>
<ellipse cx="91" cy="105" rx="8" ry="15" fill="#4C5359"/>
<ellipse cx="139" cy="105" rx="8" ry="15" fill="#4C5359"/>
<path d="M134 149.837C125 148.837 117.757 149 107.5 149C97.5589 149 96.3023 150.5 94 150.5C94 148.291 103.559 144 113.5 144C123.441 144 134 147.628 134 149.837Z" fill="#4C5359"/>
<rect x="238.356" y="201.435" width="138.115" height="77.1606" rx="16" transform="rotate(45 238.356 201.435)" fill="#2563EB"/>
<ellipse cx="104" cy="358" rx="37" ry="6" fill="#1D4ED8"/>
<ellipse cx="104" cy="358.5" rx="37" ry="5.5" fill="#D9D9D9"/>
</svg>
